<?xml version="1.0" standalone="no"?>
<!DOCTYPE svg PUBLIC "-//W3C//DTD SVG 20010904//EN"
 "http://www.w3.org/TR/2001/REC-SVG-20010904/DTD/svg10.dtd">
<svg version="1.0" xmlns="http://www.w3.org/2000/svg"
 width="1024.000000pt" height="1024.000000pt" viewBox="0 0 1024.000000 1024.000000"
 preserveAspectRatio="xMidYMid meet">
<metadata>
Created by potrace 1.14, written by Peter Selinger 2001-2017
</metadata>
<g transform="translate(0.000000,1024.000000) scale(0.100000,-0.100000)"
fill="#000000" stroke="none">
<path d="M2725 6548 c-80 -15 -190 -73 -248 -131 -62 -63 -117 -163 -149 -272
-20 -70 -23 -101 -23 -255 1 -198 11 -254 73 -380 87 -176 266 -280 487 -280
276 0 465 152 536 429 54 211 25 491 -67 648 -42 72 -117 147 -184 182 -117
63 -284 86 -425 59z m251 -262 c60 -28 107 -82 131 -151 15 -41 18 -85 18
-250 0 -199 0 -200 -28 -257 -34 -69 -84 -113 -151 -133 -136 -41 -256 10
-317 133 -23 45 -24 56 -24 267 l0 220 28 58 c60 121 215 172 343 113z"/>
<path d="M5637 6224 c-54 -17 -115 -72 -146 -131 l-20 -38 -1 83 0 82 -140 0
-140 0 2 -482 3 -483 138 -3 137 -3 0 333 c0 313 1 335 20 365 27 45 73 66
147 67 58 1 65 -1 95 -32 l33 -32 5 -348 5 -347 138 -3 137 -3 0 333 c0 254
-4 349 -15 402 -25 116 -72 188 -150 229 -53 27 -180 33 -248 11z"/>
<path d="M6540 6222 c-81 -27 -136 -58 -178 -100 -109 -110 -159 -333 -117
-530 48 -232 211 -362 450 -362 137 0 280 48 369 124 l40 33 -64 79 c-35 43
-67 83 -71 88 -4 5 -29 -10 -56 -34 -64 -57 -99 -70 -185 -70 -119 1 -181 41
-207 135 -6 22 -11 50 -11 63 l0 22 310 0 310 0 0 83 c-1 120 -29 224 -85 312
-41 64 -84 100 -165 139 -57 27 -76 30 -175 33 -86 2 -122 -1 -165 -15z m217
-199 c46 -21 80 -76 89 -140 l7 -53 -172 0 c-191 0 -182 -5 -160 75 30 111
137 165 236 118z"/>
<path d="M3560 6213 c-1 -5 59 -223 132 -485 l133 -478 141 0 141 0 42 148
c24 81 65 228 92 326 27 98 50 180 52 182 2 2 9 -20 17 -49 10 -42 121 -433
162 -574 l9 -33 144 0 c80 0 145 2 145 5 0 3 59 217 130 476 72 259 130 475
130 480 0 6 -53 8 -126 7 l-127 -3 -52 -220 c-29 -121 -65 -273 -80 -338 -15
-65 -29 -117 -31 -115 -2 3 -28 94 -59 204 -30 109 -72 260 -93 334 l-39 135
-126 3 -126 3 -9 -33 c-82 -291 -127 -453 -151 -543 -16 -60 -31 -103 -35 -95
-3 8 -17 67 -31 130 -14 63 -48 211 -76 328 l-51 212 -129 0 c-71 0 -129 -3
-129 -7z"/>
<path d="M7320 5735 l0 -486 138 3 137 3 5 310 c6 359 4 354 92 380 28 8 87
15 130 15 l78 0 0 130 0 130 -48 0 c-111 0 -200 -64 -235 -167 l-16 -48 0 108
-1 107 -140 0 -140 0 0 -485z"/>
<path d="M2713 4955 c-196 -43 -335 -188 -394 -410 -29 -109 -32 -334 -5 -450
55 -243 202 -400 413 -441 112 -21 2495 -21 2607 1 219 41 367 195 421 435 27
120 23 330 -9 453 -57 224 -179 358 -370 407 -77 20 -107 20 -1340 19 -1020 0
-1273 -3 -1323 -14z m2592 -252 c69 -23 129 -86 152 -160 25 -79 25 -393 1
-466 -33 -97 -96 -159 -181 -177 -36 -7 -434 -10 -1272 -8 l-1221 3 -49 26
c-57 29 -109 91 -127 152 -9 28 -13 106 -13 232 0 161 3 198 19 244 22 65 93
141 146 158 25 8 395 11 1266 12 1121 1 1235 0 1279 -16z"/>
<path d="M6407 4713 c-55 -19 -126 -84 -148 -135 -14 -33 -14 -32 -19 47 l-5
80 -137 3 -138 3 0 -486 0 -485 140 0 140 0 0 333 c0 312 1 334 20 364 10 18
33 39 51 49 45 23 138 23 173 1 53 -35 56 -57 56 -417 l0 -330 141 0 141 0 -4
358 c-4 335 -6 361 -26 424 -46 137 -124 199 -260 205 -53 2 -92 -2 -125 -14z"/>
<path d="M7320 4712 c-209 -55 -320 -224 -319 -487 0 -231 85 -389 251 -465
63 -29 85 -34 174 -38 164 -7 307 35 407 121 l39 32 -72 88 -72 88 -45 -41
c-24 -23 -61 -49 -81 -57 -45 -20 -152 -22 -204 -4 -64 21 -118 103 -118 179
l0 22 310 0 310 0 0 74 c0 265 -131 457 -339 496 -77 14 -166 11 -241 -8z
m179 -192 c64 -18 104 -71 116 -153 l7 -47 -172 0 -173 0 7 42 c17 103 71 158
166 167 8 0 30 -3 49 -9z"/>
</g>
</svg>
